<svg width="17" height="17" viewBox="0 0 17 17" fill="none" xmlns="http://www.w3.org/2000/svg">
<g clip-path="url(#clip0_18_11)">
<path fill-rule="evenodd" clip-rule="evenodd" d="M8.50033 1.41699C12.4125 1.41699 15.5837 4.5882 15.5837 8.50033C15.5837 12.4125 12.4125 15.5837 8.50033 15.5837C4.5882 15.5837 1.41699 12.4125 1.41699 8.50033C1.41699 4.5882 4.5882 1.41699 8.50033 1.41699ZM9.6457 9.90566C7.84013 10.4372 6.26162 11.5522 5.15699 13.0762C6.12673 13.7867 7.29812 14.1689 8.50033 14.167C9.23582 14.1682 9.96445 14.0255 10.6452 13.747C10.4223 12.4401 10.088 11.1547 9.6457 9.90495V9.90566ZM11.0468 9.6202C11.4236 10.7132 11.7268 11.8408 11.9492 12.9975C12.9884 12.2007 13.7198 11.0687 14.019 9.79374C13.0459 9.56309 12.04 9.50436 11.0468 9.6202ZM8.74895 7.72966C6.85358 8.39803 4.83319 8.63612 2.83437 8.42666L2.83366 8.50033C2.83366 9.86528 3.31674 11.1176 4.1207 12.0958C5.37892 10.426 7.13191 9.19582 9.13003 8.58037C9.00871 8.29451 8.88165 8.01112 8.74895 7.73037V7.72966ZM13.096 5.18462C12.1786 5.98581 11.1569 6.65895 10.0587 7.18566C10.2244 7.53983 10.3824 7.89753 10.5318 8.2602C11.736 8.07603 12.9756 8.11428 14.1656 8.37424C14.1419 7.22696 13.7688 6.11421 13.096 5.18462ZM6.07358 3.37908C5.33324 3.73093 4.67782 4.23883 4.15231 4.8679C3.6268 5.49697 3.24364 6.23232 3.02916 7.02345C4.74007 7.19625 6.46817 7.00308 8.0987 6.45678C7.50555 5.37928 6.82841 4.35019 6.07358 3.37908ZM8.50033 2.83366C8.16033 2.83366 7.82741 2.86341 7.50512 2.92078C8.2143 3.8736 8.85416 4.87611 9.41974 5.92058C10.3987 5.45438 11.3103 4.85826 12.1298 4.14833C11.1121 3.29713 9.82707 2.83166 8.50033 2.83366Z" fill="white"/>
</g>
<defs>
<clipPath id="clip0_18_11">
<rect width="17" height="17" fill="white"/>
</clipPath>
</defs>
</svg>
