<svg width="73" height="26" viewBox="0 0 73 26" fill="none" xmlns="http://www.w3.org/2000/svg">
<g clip-path="url(#clip0_1_102)">
<path d="M0.52002 0V20.16L3.12002 20.17V10.57H9.37002V8.03H3.11002V2.53H11.26V0H0.52002ZM15.92 4.1C16.3709 4.1 16.8033 3.92089 17.1221 3.60208C17.4409 3.28327 17.62 2.85087 17.62 2.4C17.62 1.94913 17.4409 1.51673 17.1221 1.19792C16.8033 0.879107 16.3709 0.7 15.92 0.7C15.4692 0.7 15.0367 0.879107 14.7179 1.19792C14.3991 1.51673 14.22 1.94913 14.22 2.4C14.22 2.85087 14.3991 3.28327 14.7179 3.60208C15.0367 3.92089 15.4692 4.1 15.92 4.1ZM14.61 6.63V20.17H17.21V6.63H14.61Z" fill="white"/>
<path fill-rule="evenodd" clip-rule="evenodd" d="M26.82 6.23999C23.38 6.23999 20.98 9.14999 20.98 12.61C20.98 16.07 23.38 18.98 26.82 18.98C28.4 18.98 29.7 18.38 30.65 17.38V19.18C30.6566 19.7178 30.5565 20.2516 30.3556 20.7506C30.1546 21.2495 29.8568 21.7036 29.4792 22.0867C29.1017 22.4699 28.652 22.7743 28.1561 22.9826C27.6601 23.1908 27.1279 23.2987 26.59 23.3C25.76 23.3 24.94 22.98 24.29 22.52L22.99 24.77C23.9952 25.4198 25.1572 25.7862 26.3533 25.8306C27.5494 25.875 28.7353 25.5957 29.786 25.0223C30.8366 24.4489 31.713 23.6025 32.3227 22.5724C32.9323 21.5424 33.2527 20.3669 33.25 19.17V6.63999H30.65V7.84999C29.7 6.84999 28.4 6.24999 26.82 6.24999V6.23999ZM23.57 12.61C23.57 10.46 25.21 8.76999 27.11 8.76999C29.01 8.76999 30.64 10.47 30.64 12.61C30.64 14.76 29 16.44 27.11 16.44C25.21 16.44 23.57 14.76 23.57 12.61Z" fill="white"/>
<path d="M42.59 8.76999C41.8464 8.78313 41.1378 9.08844 40.6176 9.61991C40.0973 10.1514 39.8072 10.8663 39.81 11.61V20.17H37.21V6.62999H39.81V7.86999C40.199 7.35443 40.7042 6.93807 41.2847 6.65481C41.8651 6.37155 42.5042 6.22942 43.15 6.23999C44.97 6.23999 46.37 7.13999 47.17 8.51999C47.6163 7.82819 48.2271 7.25782 48.9479 6.85993C49.6686 6.46204 50.4767 6.24904 51.3 6.23999C54.25 6.23999 56.1 8.61999 56.1 11.57V20.17H53.52V11.6C53.5227 10.8563 53.2326 10.1414 52.7123 9.60991C52.1921 9.07844 51.4836 8.77313 50.74 8.75999C49.9964 8.77313 49.2878 9.07844 48.7676 9.60991C48.2473 10.1414 47.9572 10.8563 47.96 11.6V20.16H45.36V11.6C45.3628 10.858 45.074 10.1446 44.5559 9.61337C44.0378 9.08218 43.3318 8.77572 42.59 8.75999V8.76999Z" fill="white"/>
<path fill-rule="evenodd" clip-rule="evenodd" d="M69.93 8.17C69.3396 7.55436 68.6298 7.06566 67.844 6.7338C67.0582 6.40195 66.213 6.23392 65.36 6.24C61.5 6.24 58.76 9.5 58.76 13.4C58.76 17.3 61.5 20.56 65.36 20.56C66.2127 20.5643 67.0574 20.3955 67.843 20.0637C68.6285 19.732 69.3385 19.2442 69.93 18.63V20.17H72.52V6.63H69.92V8.17H69.93ZM61.35 13.4C61.35 10.82 63.33 8.77 65.64 8.77C67.94 8.77 69.93 10.82 69.93 13.4C69.93 15.98 67.95 18.02 65.64 18.02C63.34 18.02 61.35 15.98 61.35 13.4Z" fill="white"/>
</g>
<defs>
<clipPath id="clip0_1_102">
<rect width="73" height="26" fill="white"/>
</clipPath>
</defs>
</svg>
