<svg width="182" height="30" viewBox="0 0 182 30" fill="none" xmlns="http://www.w3.org/2000/svg">
<path d="M0.0960001 29V2.18H6.54V29H0.0960001ZM18.0099 29.504C13.6179 29.504 12.1779 26.624 12.1779 22.34V0.235999H18.5859V22.556C18.5859 23.924 19.1979 24.32 19.7019 24.32C19.9179 24.32 20.0619 24.32 20.4219 24.248L21.1779 28.964C20.4939 29.252 19.4499 29.504 18.0099 29.504ZM29.9631 29.504C25.5711 29.504 24.1311 26.624 24.1311 22.34V0.235999H30.5391V22.556C30.5391 23.924 31.1511 24.32 31.6551 24.32C31.8711 24.32 32.0151 24.32 32.3751 24.248L33.1311 28.964C32.4471 29.252 31.4031 29.504 29.9631 29.504ZM42.2762 29.504C37.7762 29.504 35.8682 26.3 35.8682 21.188V8.516H42.2762V20.396C42.2762 23.204 43.0322 24.032 44.6522 24.032C46.0922 24.032 46.9922 23.456 48.0722 21.944V8.516H54.4802V29H49.2602L48.7922 26.192H48.6482C46.9562 28.208 45.0482 29.504 42.2762 29.504ZM65.7589 29.504C63.0949 29.504 59.9629 28.352 57.8749 26.624L60.7189 22.628C62.5909 24.032 64.2829 24.788 65.9029 24.788C67.5949 24.788 68.3149 24.176 68.3149 23.168C68.3149 21.944 66.3349 21.368 64.2469 20.54C61.7989 19.568 59.0269 17.912 59.0269 14.492C59.0269 10.64 62.1589 8.012 66.9469 8.012C70.1509 8.012 72.5269 9.308 74.2549 10.64L71.4109 14.456C69.9349 13.412 68.4949 12.728 67.1629 12.728C65.6869 12.728 65.0029 13.232 65.0029 14.204C65.0029 15.428 66.7669 15.896 68.8909 16.652C71.4469 17.624 74.2909 19.1 74.2909 22.808C74.2909 26.588 71.3389 29.504 65.7589 29.504ZM84.9646 29.504C79.8166 29.504 77.7286 26.228 77.7286 21.404V13.52H74.9566V8.768L78.1246 8.516L78.8446 3.08H84.1366V8.516H88.9606V13.52H84.1366V21.332C84.1366 23.6 85.2166 24.5 86.7286 24.5C87.3766 24.5 88.0966 24.284 88.6006 24.104L89.6086 28.748C88.5286 29.072 87.0526 29.504 84.9646 29.504ZM92.9318 29V8.516H98.1518L98.6198 12.08H98.7278C100.24 9.344 102.508 8.012 104.56 8.012C105.784 8.012 106.468 8.192 107.044 8.444L106 13.952C105.244 13.772 104.632 13.628 103.732 13.628C102.22 13.628 100.384 14.6 99.3398 17.3V29H92.9318ZM113.374 29.504C109.594 29.504 107.29 26.696 107.29 23.276C107.29 18.956 110.674 16.616 118.666 15.752C118.522 14.096 117.658 13.124 115.57 13.124C113.95 13.124 112.258 13.772 110.206 14.924L107.974 10.712C110.674 9.092 113.59 8.012 116.794 8.012C122.086 8.012 125.074 10.964 125.074 17.372V29H119.854L119.422 26.948H119.242C117.55 28.46 115.642 29.504 113.374 29.504ZM115.57 24.536C116.866 24.536 117.73 23.924 118.666 22.916V19.64C114.67 20.144 113.374 21.332 113.374 22.772C113.374 23.96 114.238 24.536 115.57 24.536ZM137.066 29.504C131.918 29.504 129.83 26.228 129.83 21.404V13.52H127.058V8.768L130.226 8.516L130.946 3.08H136.238V8.516H141.062V13.52H136.238V21.332C136.238 23.6 137.318 24.5 138.83 24.5C139.478 24.5 140.198 24.284 140.702 24.104L141.71 28.748C140.63 29.072 139.154 29.504 137.066 29.504ZM152.906 29.504C147.686 29.504 142.862 25.544 142.862 18.74C142.862 11.972 147.686 8.012 152.906 8.012C158.09 8.012 162.914 11.972 162.914 18.74C162.914 25.544 158.09 29.504 152.906 29.504ZM152.906 24.32C155.282 24.32 156.362 22.16 156.362 18.74C156.362 15.356 155.282 13.196 152.906 13.196C150.494 13.196 149.414 15.356 149.414 18.74C149.414 22.16 150.494 24.32 152.906 24.32ZM166.936 29V8.516H172.156L172.624 12.08H172.732C174.244 9.344 176.512 8.012 178.564 8.012C179.788 8.012 180.472 8.192 181.048 8.444L180.004 13.952C179.248 13.772 178.636 13.628 177.736 13.628C176.224 13.628 174.388 14.6 173.344 17.3V29H166.936Z" fill="white"/>
</svg>
