<svg width="192" height="37" viewBox="0 0 192 37" fill="none" xmlns="http://www.w3.org/2000/svg">
<path d="M0.0960001 29V2.18H9.528C15.396 2.18 20.256 4.304 20.256 10.928C20.256 17.3 15.36 20.108 9.672 20.108H6.54V29H0.0960001ZM6.54 15.032H9.348C12.48 15.032 13.992 13.556 13.992 10.928C13.992 8.228 12.264 7.292 9.168 7.292H6.54V15.032ZM24.3068 29V0.235999H30.7148V7.148L30.3908 10.784C31.8668 9.416 33.8828 8.012 36.6548 8.012C41.1188 8.012 43.0268 11.216 43.0268 16.328V29H36.6188V17.12C36.6188 14.276 35.8628 13.484 34.2428 13.484C32.8028 13.484 31.9388 14.132 30.7148 15.32V29H24.3068ZM56.8942 29.504C51.6742 29.504 46.8502 25.544 46.8502 18.74C46.8502 11.972 51.6742 8.012 56.8942 8.012C62.0782 8.012 66.9022 11.972 66.9022 18.74C66.9022 25.544 62.0782 29.504 56.8942 29.504ZM56.8942 24.32C59.2702 24.32 60.3502 22.16 60.3502 18.74C60.3502 15.356 59.2702 13.196 56.8942 13.196C54.4822 13.196 53.4022 15.356 53.4022 18.74C53.4022 22.16 54.4822 24.32 56.8942 24.32ZM77.5818 29.504C72.4338 29.504 70.3458 26.228 70.3458 21.404V13.52H67.5738V8.768L70.7418 8.516L71.4618 3.08H76.7538V8.516H81.5778V13.52H76.7538V21.332C76.7538 23.6 77.8338 24.5 79.3458 24.5C79.9938 24.5 80.7138 24.284 81.2178 24.104L82.2258 28.748C81.1458 29.072 79.6698 29.504 77.5818 29.504ZM93.4215 29.504C88.2015 29.504 83.3775 25.544 83.3775 18.74C83.3775 11.972 88.2015 8.012 93.4215 8.012C98.6055 8.012 103.43 11.972 103.43 18.74C103.43 25.544 98.6055 29.504 93.4215 29.504ZM93.4215 24.32C95.7975 24.32 96.8775 22.16 96.8775 18.74C96.8775 15.356 95.7975 13.196 93.4215 13.196C91.0095 13.196 89.9295 15.356 89.9295 18.74C89.9295 22.16 91.0095 24.32 93.4215 24.32ZM113.114 29.504C110.45 29.504 107.318 28.352 105.23 26.624L108.074 22.628C109.946 24.032 111.638 24.788 113.258 24.788C114.95 24.788 115.67 24.176 115.67 23.168C115.67 21.944 113.69 21.368 111.602 20.54C109.154 19.568 106.382 17.912 106.382 14.492C106.382 10.64 109.514 8.012 114.302 8.012C117.506 8.012 119.882 9.308 121.61 10.64L118.766 14.456C117.29 13.412 115.85 12.728 114.518 12.728C113.042 12.728 112.358 13.232 112.358 14.204C112.358 15.428 114.122 15.896 116.246 16.652C118.802 17.624 121.646 19.1 121.646 22.808C121.646 26.588 118.694 29.504 113.114 29.504ZM125.346 29V0.235999H131.754V7.148L131.43 10.784C132.906 9.416 134.922 8.012 137.694 8.012C142.158 8.012 144.066 11.216 144.066 16.328V29H137.658V17.12C137.658 14.276 136.902 13.484 135.282 13.484C133.842 13.484 132.978 14.132 131.754 15.32V29H125.346ZM157.933 29.504C152.713 29.504 147.889 25.544 147.889 18.74C147.889 11.972 152.713 8.012 157.933 8.012C163.117 8.012 167.941 11.972 167.941 18.74C167.941 25.544 163.117 29.504 157.933 29.504ZM157.933 24.32C160.309 24.32 161.389 22.16 161.389 18.74C161.389 15.356 160.309 13.196 157.933 13.196C155.521 13.196 154.441 15.356 154.441 18.74C154.441 22.16 155.521 24.32 157.933 24.32ZM171.963 36.452V8.516H177.183L177.651 10.496H177.759C179.379 9.056 181.395 8.012 183.519 8.012C188.415 8.012 191.511 12.116 191.511 18.416C191.511 25.472 187.299 29.504 182.907 29.504C181.179 29.504 179.523 28.748 178.155 27.38L178.371 30.584V36.452H171.963ZM181.395 24.248C183.339 24.248 184.923 22.628 184.923 18.524C184.923 14.924 183.879 13.232 181.611 13.232C180.423 13.232 179.451 13.772 178.371 14.96V23.06C179.379 23.96 180.423 24.248 181.395 24.248Z" fill="white"/>
</svg>
