<svg width="214" height="42" viewBox="0 0 214 42" fill="none" xmlns="http://www.w3.org/2000/svg">
<path d="M132.061 40.4123H139.102V0H132.061V40.4123Z" fill="white"/>
<path fill-rule="evenodd" clip-rule="evenodd" d="M93.2484 39.9997C94.7786 40.6358 96.3346 40.9539 97.9164 40.9539C100.53 40.9539 102.868 40.3177 104.931 39.0454C106.994 37.7732 108.593 36.0195 109.728 33.7844C110.863 31.5321 111.43 28.9789 111.43 26.1249C111.43 23.2708 110.846 20.7176 109.676 18.4653C108.507 16.2131 106.883 14.468 104.802 13.2301C102.722 11.975 100.358 11.356 97.71 11.3732C96.0251 11.3732 94.409 11.6999 92.8616 12.3532C91.3142 13.0066 90.0247 13.935 88.9932 15.1385C88.9135 15.2301 88.8361 15.3227 88.761 15.4161V0.0257896H81.6947V40.4123H88.7095L88.6953 36.6394C88.8768 36.8618 89.0707 37.0793 89.2768 37.2918C90.3944 38.4437 91.7183 39.3463 93.2484 39.9997ZM100.47 33.4749C99.3176 34.1798 98.0023 34.5323 96.5237 34.5323C95.0623 34.5323 93.7212 34.1712 92.5005 33.4491C91.2798 32.7098 90.3084 31.704 89.5863 30.4317C88.8814 29.1594 88.5289 27.7152 88.5289 26.0991C88.5117 24.4829 88.8556 23.0387 89.5605 21.7664C90.2826 20.4769 91.254 19.4797 92.4747 18.7748C93.6955 18.0527 95.0451 17.7003 96.5237 17.7175C98.0023 17.7003 99.3176 18.0441 100.47 18.749C101.639 19.4368 102.533 20.4254 103.152 21.7148C103.788 22.9871 104.106 24.4485 104.106 26.0991C104.106 27.7496 103.788 29.211 103.152 30.4833C102.533 31.7556 101.639 32.7528 100.47 33.4749Z" fill="white"/>
<path d="M0 2.45001H8.04635L15.2441 28.7366L22.9012 2.45001H29.6065L37.9109 28.2091L44.8223 2.45001H52.1981L41.3149 40.4123H34.3775L25.9332 15.2478L18.1817 40.4123H11.1669L0 2.45001Z" fill="white"/>
<path fill-rule="evenodd" clip-rule="evenodd" d="M64.0804 41.0828C61.2779 41.1 58.7506 40.4811 56.4983 39.226C54.2632 37.9537 52.5009 36.1914 51.2114 33.9391C49.9391 31.6868 49.303 29.1165 49.303 26.228C49.303 23.4255 49.9563 20.8896 51.263 18.6201C52.5696 16.3506 54.3405 14.5797 56.5756 13.3074C58.8107 12.0351 61.3037 11.399 64.0546 11.399C67.1494 11.399 69.8573 12.0867 72.1783 13.4622C74.5166 14.8376 76.2617 16.789 77.4136 19.3164C78.5828 21.8266 79.004 24.7064 78.6773 27.9559H56.5866C56.6484 29.2505 56.9714 30.4282 57.5556 31.4891C58.209 32.6582 59.1202 33.5695 60.2893 34.2228C61.4585 34.8761 62.7651 35.2028 64.2093 35.2028C65.3097 35.1856 66.3327 34.9965 67.2783 34.6354C68.2239 34.2572 69.0234 33.75 69.6767 33.1138C70.3473 32.4777 70.8201 31.7556 71.0952 30.9475H78.471C78.024 32.9247 77.1299 34.687 75.7889 36.2344C74.4478 37.7646 72.7629 38.9595 70.7341 39.8191C68.7053 40.6788 66.4874 41.1 64.0804 41.0828ZM57.5814 20.8638C57.1694 21.5823 56.8839 22.356 56.7251 23.1848H71.3685C71.2622 22.1377 70.939 21.1835 70.3989 20.3222C69.7799 19.3078 68.9374 18.5255 67.8715 17.9753C66.8055 17.408 65.602 17.1243 64.2609 17.1243C62.8339 17.1243 61.5358 17.451 60.3667 18.1043C59.1976 18.7576 58.2692 19.6775 57.5814 20.8638Z" fill="white"/>
<path d="M116.614 11.9922C116.614 9.68829 117.138 7.64232 118.187 5.85424C119.236 4.04897 120.706 2.64773 122.597 1.65053C124.505 0.636143 126.732 0.111755 129.277 0.0773688V6.34424C128.09 6.36143 127.076 6.61073 126.233 7.09214C125.408 7.55635 124.772 8.23548 124.325 9.12952C123.913 9.95259 123.691 10.9068 123.659 11.9922H129.122V17.9496H123.654V40.4123H116.614V17.9496H112.075V11.9922H116.614Z" fill="white"/>
<path fill-rule="evenodd" clip-rule="evenodd" d="M157 41.0312C154.129 41.0312 151.558 40.4037 149.289 39.1486C147.037 37.8763 145.266 36.1226 143.976 33.8875C142.704 31.6352 142.068 29.0821 142.068 26.228C142.068 23.3568 142.704 20.795 143.976 18.5427C145.266 16.2732 147.037 14.5109 149.289 13.2559C151.558 12.0008 154.129 11.3732 157 11.3732C159.888 11.3732 162.467 12.0008 164.737 13.2559C167.024 14.5109 168.803 16.2646 170.075 18.5169C171.348 20.7692 171.992 23.3396 172.009 26.228C171.992 29.0821 171.348 31.6352 170.075 33.8875C168.82 36.1226 167.049 37.8763 164.763 39.1486C162.476 40.4037 159.888 41.0312 157 41.0312ZM157 34.5581C158.513 34.5581 159.854 34.2142 161.023 33.5265C162.192 32.8216 163.095 31.8415 163.731 30.5865C164.367 29.3142 164.685 27.8614 164.685 26.228C164.685 24.5775 164.367 23.1161 163.731 21.8438C163.095 20.5715 162.192 19.5915 161.023 18.9038C159.854 18.1989 158.513 17.8464 157 17.8464C155.504 17.8464 154.172 18.1989 153.003 18.9038C151.851 19.5915 150.957 20.5715 150.32 21.8438C149.684 23.1161 149.375 24.5775 149.392 26.228C149.392 27.8614 149.71 29.3142 150.346 30.5865C151 31.8415 151.894 32.8216 153.028 33.5265C154.18 34.2142 155.504 34.5581 157 34.5581Z" fill="white"/>
<path d="M179.617 11.9922H171.777L180.262 40.4123H187.122L192.702 22.2604L198.728 40.4123H205.484L213.995 11.9922H206.903L202.077 29.682L196.742 11.9922H189.882L184.573 30.0716L179.617 11.9922Z" fill="white"/>
</svg>
